<svg xmlns="http://www.w3.org/2000/svg" width="175" height="37.956" viewBox="0 0 175 37.956"><g transform="translate(-6497 185)"><path d="M14.653,37.931v.025A14.66,14.66,0,0,1,.1,24.791h2.95v-.025A11.715,11.715,0,0,0,14.6,35.031V35h.834A11.719,11.719,0,0,0,26.254,24.766v.025H29.2A14.627,14.627,0,0,1,23.444,35H33.618a1.463,1.463,0,0,1,0,2.926h-18.1q-.427.025-.861.025Zm98.81-6.363a1.431,1.431,0,0,1-.58-.5,1.017,1.017,0,0,1-.2-.656,1.309,1.309,0,0,1,.252-.832.813.813,0,0,1,.681-.328,1.727,1.727,0,0,1,.554.1c.2.05.428.126.656.2.454.151.857.277,1.236.379a4.738,4.738,0,0,0,1.236.151,3.056,3.056,0,0,0,2.018-.581,2.265,2.265,0,0,0,.655-1.765V26.65a3.137,3.137,0,0,1-1.337,1.211,4.3,4.3,0,0,1-1.993.454,4.636,4.636,0,0,1-2.4-.6,4.294,4.294,0,0,1-1.639-1.715,5.4,5.4,0,0,1-.58-2.6,5.7,5.7,0,0,1,.58-2.6,4.355,4.355,0,0,1,1.639-1.741,4.7,4.7,0,0,1,2.4-.6,4.593,4.593,0,0,1,1.967.428,2.976,2.976,0,0,1,1.337,1.211v-.2a1.258,1.258,0,0,1,.428-1.009,1.694,1.694,0,0,1,1.16-.378,1.477,1.477,0,0,1,1.11.353,1.346,1.346,0,0,1,.429,1.034v7.616a4.485,4.485,0,0,1-1.463,3.632,6.414,6.414,0,0,1-4.261,1.236A8.3,8.3,0,0,1,113.463,31.568Zm2.32-10.113a2.708,2.708,0,0,0-.63,1.917,2.667,2.667,0,0,0,.63,1.917,2.3,2.3,0,0,0,1.766.68,2.278,2.278,0,0,0,1.74-.68,2.78,2.78,0,0,0,.631-1.917,2.663,2.663,0,0,0-.631-1.917,2.257,2.257,0,0,0-1.74-.706A2.23,2.23,0,0,0,115.783,21.454ZM5.927,23.328h0v-23A.334.334,0,0,1,6.255,0H8.5a.334.334,0,0,1,.328.328V16.8a8.783,8.783,0,1,1-2.9,6.528ZM9.382,23.3a5.334,5.334,0,1,0,5.347-5.321A5.344,5.344,0,0,0,9.382,23.3ZM168.19,28.541a4.886,4.886,0,0,1-1.664-.655,1.241,1.241,0,0,1-.48-.48,1.514,1.514,0,0,1-.176-.68,1.184,1.184,0,0,1,.277-.782.863.863,0,0,1,.681-.3,1.436,1.436,0,0,1,.554.1c.176.05.379.126.581.2a7.932,7.932,0,0,0,1.16.4,5.584,5.584,0,0,0,1.412.152,2.416,2.416,0,0,0,1.16-.228.666.666,0,0,0,.4-.6.611.611,0,0,0-.176-.455,1.443,1.443,0,0,0-.655-.3c-.329-.1-.833-.2-1.539-.353a5.826,5.826,0,0,1-2.7-1.034,2.325,2.325,0,0,1-.833-1.917,2.6,2.6,0,0,1,.581-1.639,3.785,3.785,0,0,1,1.589-1.135,6.01,6.01,0,0,1,2.295-.4,6.784,6.784,0,0,1,1.766.227,5.628,5.628,0,0,1,1.538.63,1.312,1.312,0,0,1,.378,1.942.813.813,0,0,1-.68.328,2.713,2.713,0,0,1-1.16-.353,8.968,8.968,0,0,0-.958-.4,4,4,0,0,0-1.034-.126,2.03,2.03,0,0,0-1.034.227.707.707,0,0,0,.076,1.286,7.041,7.041,0,0,0,1.715.454,9.61,9.61,0,0,1,2.219.631,2.606,2.606,0,0,1,1.16.933A2.755,2.755,0,0,1,175,25.641a2.582,2.582,0,0,1-1.236,2.27,5.831,5.831,0,0,1-3.3.858A13.754,13.754,0,0,1,168.19,28.541Zm-12.03-.428a4.536,4.536,0,0,1-1.916-1.791,5.318,5.318,0,0,1-.681-2.723,5.19,5.19,0,0,1,.681-2.723,4.541,4.541,0,0,1,1.916-1.791,6.993,6.993,0,0,1,5.8,0,4.541,4.541,0,0,1,1.916,1.791,5.318,5.318,0,0,1,.681,2.723,5.19,5.19,0,0,1-.681,2.723,4.536,4.536,0,0,1-1.916,1.791,6.228,6.228,0,0,1-2.9.631A6.557,6.557,0,0,1,156.16,28.112Zm.581-4.54c0,1.892.782,2.85,2.32,2.85s2.32-.958,2.32-2.85a3.248,3.248,0,0,0-.6-2.144,2.123,2.123,0,0,0-1.715-.706C157.5,20.723,156.74,21.681,156.74,23.573Zm-16.771,4.54a4.438,4.438,0,0,1-1.841-1.766,5.412,5.412,0,0,1-.656-2.7,5.327,5.327,0,0,1,.681-2.723,4.66,4.66,0,0,1,1.942-1.816,6.194,6.194,0,0,1,2.875-.655,6.833,6.833,0,0,1,1.715.227,5.629,5.629,0,0,1,1.538.63,1.247,1.247,0,0,1,.656,1.135,1.328,1.328,0,0,1-.253.858.813.813,0,0,1-.68.328,1.32,1.32,0,0,1-.53-.1c-.151-.05-.378-.151-.655-.277-.3-.151-.555-.252-.782-.353a2.539,2.539,0,0,0-.782-.126,2.3,2.3,0,0,0-1.815.706,3.187,3.187,0,0,0-.631,2.093,3.054,3.054,0,0,0,.631,2.093,2.247,2.247,0,0,0,1.815.731,2.452,2.452,0,0,0,.782-.1,8.914,8.914,0,0,0,.832-.353c.277-.126.479-.2.63-.277a1.635,1.635,0,0,1,.5-.1.792.792,0,0,1,.655.353,1.383,1.383,0,0,1,.253.858,1.208,1.208,0,0,1-.656,1.11,5.8,5.8,0,0,1-1.563.63,7.433,7.433,0,0,1-1.867.228A6.11,6.11,0,0,1,139.97,28.112Zm-12.333,0a4.538,4.538,0,0,1-1.917-1.791,5.327,5.327,0,0,1-.681-2.723,5.2,5.2,0,0,1,.681-2.723,4.544,4.544,0,0,1,1.917-1.791,6.991,6.991,0,0,1,5.8,0,4.544,4.544,0,0,1,1.917,1.791,5.326,5.326,0,0,1,.68,2.723,5.2,5.2,0,0,1-.68,2.723,4.538,4.538,0,0,1-1.917,1.791,6.228,6.228,0,0,1-2.9.631A6.553,6.553,0,0,1,127.637,28.112Zm.58-4.54c0,1.892.782,2.85,2.32,2.85s2.32-.958,2.32-2.85a3.248,3.248,0,0,0-.6-2.144,2.123,2.123,0,0,0-1.715-.706C129,20.723,128.217,21.681,128.217,23.573Zm-24.891,4.54a4.6,4.6,0,0,1-1.942-1.791A5.327,5.327,0,0,1,100.7,23.6a5.452,5.452,0,0,1,.656-2.673,4.5,4.5,0,0,1,1.816-1.816,5.423,5.423,0,0,1,2.648-.655,5.085,5.085,0,0,1,2.5.6,4.291,4.291,0,0,1,1.665,1.69,5.236,5.236,0,0,1,.58,2.572.924.924,0,0,1-.227.68.836.836,0,0,1-.631.228h-5.927a2.655,2.655,0,0,0,.757,1.715,2.592,2.592,0,0,0,1.765.53,3.777,3.777,0,0,0,1.11-.152c.329-.1.681-.227,1.085-.378a5.291,5.291,0,0,1,.58-.2,2.04,2.04,0,0,1,.479-.1.865.865,0,0,1,.681.3,1.263,1.263,0,0,1,.252.832,1.166,1.166,0,0,1-.2.63,1.888,1.888,0,0,1-.58.5,8.519,8.519,0,0,1-1.664.6,7.546,7.546,0,0,1-1.766.228A6.364,6.364,0,0,1,103.325,28.112Zm1.135-7.036a2.562,2.562,0,0,0-.656,1.614h4.086a2.613,2.613,0,0,0-.555-1.614,1.858,1.858,0,0,0-1.412-.555A1.977,1.977,0,0,0,104.46,21.076ZM68.219,28.743a1.627,1.627,0,0,1-1.741-1.816V15.981a1.615,1.615,0,0,1,1.741-1.815h4.565c3.1,0,4.842,1.311,4.842,3.707a3.042,3.042,0,0,1-2.471,3.1,3.516,3.516,0,0,1,3,3.632c0,2.824-1.766,4.136-5.674,4.136ZM69.782,26.4h2.472v.025c1.715,0,2.5-.631,2.5-2.144,0-1.388-.807-2.018-2.523-2.018H69.782Zm0-6h2.245a1.922,1.922,0,0,0,2.194-2.017c0-1.262-.731-1.917-2.169-1.917h-2.27ZM42.646,28.743a1.627,1.627,0,0,1-1.741-1.816V15.981a1.615,1.615,0,0,1,1.741-1.815h4.565c3.1,0,4.842,1.311,4.842,3.707a3.042,3.042,0,0,1-2.471,3.1,3.516,3.516,0,0,1,3,3.632c0,2.824-1.765,4.136-5.674,4.136ZM44.21,26.4h2.471v.025c1.715,0,2.5-.631,2.5-2.144,0-1.388-.806-2.018-2.522-2.018H44.21Zm0-6h2.245a1.923,1.923,0,0,0,2.194-2.017c0-1.262-.732-1.917-2.169-1.917H44.21ZM54.071,27.1V26.4c0-2.8,2.169-4.086,4.161-5.2,1.715-.984,2.976-1.563,2.976-2.824,0-1.186-.807-1.841-2.119-1.841a2.914,2.914,0,0,0-2.723,2.522c0,.076-2.245.151-2.245-1.563a3.294,3.294,0,0,1,1.261-2.421,5.984,5.984,0,0,1,3.959-1.236c3.3,0,5.221,1.74,5.221,4.362,0,2.548-1.791,3.658-3.808,4.64-1.564.782-2.951,1.489-3.329,2.724a.994.994,0,0,0-.151.378h5.851c1.16,0,1.614.455,1.614,1.236v.2c0,.833-.428,1.312-1.614,1.312H56.139q-.157.005-.3.005C54.51,28.7,54.071,28.351,54.071,27.1Zm94.8,1.236a1.3,1.3,0,0,1-.454-1.059V19.916a1.238,1.238,0,0,1,.454-1.059,1.7,1.7,0,0,1,1.135-.353,1.844,1.844,0,0,1,1.135.353,1.3,1.3,0,0,1,.454,1.059v7.339a1.238,1.238,0,0,1-.454,1.059,1.7,1.7,0,0,1-1.135.353q-.057,0-.113,0A1.666,1.666,0,0,1,148.872,28.339Zm-53.163-.2-7.087-8.65v7.591A1.552,1.552,0,0,1,86,28.213a1.584,1.584,0,0,1-.429-1.135V15.8A1.524,1.524,0,0,1,86,14.7a1.54,1.54,0,0,1,1.135-.428,1.448,1.448,0,0,1,1.211.529l7.087,8.6V15.83a1.469,1.469,0,0,1,1.538-1.538,1.389,1.389,0,0,1,1.11.4,1.524,1.524,0,0,1,.429,1.11V27.1a1.474,1.474,0,0,1-1.564,1.563A1.6,1.6,0,0,1,95.709,28.138ZM0,21.941V.353A.345.345,0,0,1,.353,0H2.648A.345.345,0,0,1,3,.353V21.941Zm148.7-5.027a1.381,1.381,0,0,1-.479-1.11,1.35,1.35,0,0,1,.479-1.11,1.971,1.971,0,0,1,1.337-.4,1.943,1.943,0,0,1,1.311.4,1.367,1.367,0,0,1,.5,1.11,1.346,1.346,0,0,1-.48,1.11,2.412,2.412,0,0,1-2.673,0Z" transform="translate(6497 -185)" fill="#143862"></path><path d="M.025,26.3a11.714,11.714,0,0,0,11.6-10.264v.025h2.951A14.66,14.66,0,0,1,.025,29.229ZM11.651,13.216a7.018,7.018,0,0,0-.3-1.514A11.672,11.672,0,0,0,0,2.926V0H0A14.666,14.666,0,0,1,14.351,11.7a11.005,11.005,0,0,1,.227,1.514Z" transform="translate(6511.627 -176.274)" fill="#dd2029"></path></g></svg>