<svg xmlns="http://www.w3.org/2000/svg" id="Capa_1" data-name="Capa 1" viewBox="0 0 32 32"><defs><style>.cls-1{fill:#013662;}.cls-2{fill:#de2029;}</style></defs><path class="cls-1" d="M14.85,12.25a7.42,7.42,0,1,0,7.4,7.43A7.42,7.42,0,0,0,14.85,12.25Zm0,11.91a4.5,4.5,0,1,1,4.5-4.49A4.51,4.51,0,0,1,14.83,24.16Z"></path><path class="cls-1" d="M3,0h1.4a.56.56,0,0,1,.56.56v18a0,0,0,0,1,0,0H2.43a0,0,0,0,1,0,0V.56A.56.56,0,0,1,3,0Z"></path><path class="cls-1" d="M32,30.76A1.22,1.22,0,0,1,30.8,32h-16V29.53H30.8A1.22,1.22,0,0,1,32,30.76Z"></path><path class="cls-1" d="M5,20.89a9.88,9.88,0,0,0,9.79,8.65h0V32h0A12.33,12.33,0,0,1,2.52,20.89Z"></path><path class="cls-1" d="M8,0H9.34a.55.55,0,0,1,.55.55V19.68a0,0,0,0,1,0,0H7.42a0,0,0,0,1,0,0V.55A.55.55,0,0,1,8,0Z"></path><path class="cls-2" d="M24.57,20.89a9.88,9.88,0,0,1-9.79,8.65h0V32h0A12.35,12.35,0,0,0,27.05,20.89Z"></path><path class="cls-2" d="M24.57,20.89a9.88,9.88,0,0,1-9.79,8.65h0V32h0A12.35,12.35,0,0,0,27.05,20.89Z"></path><path class="cls-2" d="M14.77,7.35V9.81h0a9.88,9.88,0,0,1,9.56,7.42,6.88,6.88,0,0,1,.25,1.28h2.46a12.81,12.81,0,0,0-.19-1.28A12.34,12.34,0,0,0,14.78,7.35Z"></path></svg>